PERFORMER "Ajattara"
TITLE "Äpäre"
REM DATE 2006
REM GENRE "Black Metal"
FILE "01 - Hurmasta.flac" WAVE
  TRACK 01 AUDIO
    PERFORMER "Ajattara"
    TITLE "Hurmasta"
    INDEX 01 00:00:00
FILE "02 - Kaato.flac" WAVE
  TRACK 02 AUDIO
    PERFORMER "Ajattara"
    TITLE "Kaato"
    INDEX 01 00:00:00
FILE "03 - Saalin Koira.flac" WAVE
  TRACK 03 AUDIO
    PERFORMER "Ajattara"
    TITLE "Saalin Koira"
    INDEX 01 00:00:00
FILE "04 - Lautuma.flac" WAVE
  TRACK 04 AUDIO
    PERFORMER "Ajattara"
    TITLE "Lautuma"
    INDEX 01 00:00:00
FILE "05 - Eksyneet.flac" WAVE
  TRACK 05 AUDIO
    PERFORMER "Ajattara"
    TITLE "Eksyneet"
    INDEX 01 00:00:00
  TRACK 06 AUDIO
    PERFORMER "Ajattara"
    TITLE "Hirsipuulintu"
    INDEX 00 03:07:19
FILE "06 - Hirsipuulintu.flac" WAVE
    INDEX 01 00:00:00
FILE "07 - Tahtomattaan Syntynyt.flac" WAVE
  TRACK 07 AUDIO
    PERFORMER "Ajattara"
    TITLE "Tahtomattaan Syntynyt"
    INDEX 01 00:00:00
FILE "08 - Itse.flac" WAVE
  TRACK 08 AUDIO
    PERFORMER "Ajattara"
    TITLE "Itse"
    INDEX 01 00:00:00
FILE "09 - Koito.flac" WAVE
  TRACK 09 AUDIO
    PERFORMER "Ajattara"
    TITLE "Koito"
    INDEX 01 00:00:00
FILE "10 - Syntyni.flac" WAVE
  TRACK 10 AUDIO
    PERFORMER "Ajattara"
    TITLE "Syntyni"
    INDEX 01 00:00:00
